<svg xmlns="http://www.w3.org/2000/svg" viewBox="0 0 1400 900" width="1400" height="900">
<defs>
<linearGradient id="room" x1="0" y1="0" x2="0" y2="1"><stop offset="0" stop-color="#1d2536"/><stop offset="0.45" stop-color="#121826"/><stop offset="1" stop-color="#07090f"/></linearGradient>
<linearGradient id="win" x1="0" y1="0" x2="0" y2="1"><stop offset="0" stop-color="#7dd3fc" stop-opacity="0.35"/><stop offset="1" stop-color="#7dd3fc" stop-opacity="0.05"/></linearGradient>
<radialGradient id="glow" cx="0.5" cy="0.55" r="0.6"><stop offset="0" stop-color="#00d4ff" stop-opacity="0.18"/><stop offset="1" stop-color="#00d4ff" stop-opacity="0"/></radialGradient>
</defs>
<rect width="1400" height="900" fill="url(#room)"/>
<rect x="60" y="40" width="200" height="230" rx="4" fill="url(#win)"/><rect x="290" y="40" width="200" height="230" rx="4" fill="url(#win)"/><rect x="520" y="40" width="200" height="230" rx="4" fill="url(#win)"/><rect x="750" y="40" width="200" height="230" rx="4" fill="url(#win)"/><rect x="980" y="40" width="200" height="230" rx="4" fill="url(#win)"/><rect x="1210" y="40" width="200" height="230" rx="4" fill="url(#win)"/>
<rect x="160" y="0" width="120" height="8" fill="#e2e8f0" opacity="0.5"/><rect x="440" y="0" width="120" height="8" fill="#e2e8f0" opacity="0.5"/><rect x="720" y="0" width="120" height="8" fill="#e2e8f0" opacity="0.5"/><rect x="1000" y="0" width="120" height="8" fill="#e2e8f0" opacity="0.5"/><rect x="1280" y="0" width="120" height="8" fill="#e2e8f0" opacity="0.5"/>
<rect y="300" width="1400" height="600" fill="#0a0d15" opacity="0.6"/>
<rect width="1400" height="900" fill="url(#glow)"/>
<g transform="translate(175.0 330) scale(0.62)"><rect x="-120" y="-150" width="170" height="104" rx="8" fill="#0b0f19" stroke="#1f2937" stroke-width="4"/><rect x="-112" y="-142" width="154" height="88" rx="4" fill="#0e7490" opacity="0.85"/><rect x="-100" y="-130" width="50" height="6" rx="3" fill="#e0f2fe" opacity="0.5"/><rect x="-100" y="-114" width="87" height="6" rx="3" fill="#e0f2fe" opacity="0.5"/><rect x="-100" y="-98" width="124" height="6" rx="3" fill="#e0f2fe" opacity="0.5"/><rect x="-100" y="-82" width="81" height="6" rx="3" fill="#e0f2fe" opacity="0.5"/><rect x="-100" y="-66" width="118" height="6" rx="3" fill="#e0f2fe" opacity="0.5"/><rect x="-45" y="-46" width="20" height="30" fill="#111827"/><rect x="-190" y="-16" width="380" height="18" rx="4" fill="#1a1f2b"/><rect x="-175" y="2" width="10" height="120" fill="#10141d"/><rect x="165" y="2" width="10" height="120" fill="#10141d"/></g><g transform="translate(156.4 388.9) scale(0.589)"><circle cx="0" cy="-118" r="26" fill="#1b2130"/><path d="M-52 -40 q0 -58 52 -58 q52 0 52 58 v40 h-104z" fill="#1f2937"/></g><g transform="translate(525.0 330) scale(0.62)"><rect x="-120" y="-150" width="170" height="104" rx="8" fill="#0b0f19" stroke="#1f2937" stroke-width="4"/><rect x="-112" y="-142" width="154" height="88" rx="4" fill="#4338ca" opacity="0.85"/><rect x="-100" y="-130" width="50" height="6" rx="3" fill="#e0f2fe" opacity="0.5"/><rect x="-100" y="-114" width="87" height="6" rx="3" fill="#e0f2fe" opacity="0.5"/><rect x="-100" y="-98" width="124" height="6" rx="3" fill="#e0f2fe" opacity="0.5"/><rect x="-100" y="-82" width="81" height="6" rx="3" fill="#e0f2fe" opacity="0.5"/><rect x="-100" y="-66" width="118" height="6" rx="3" fill="#e0f2fe" opacity="0.5"/><rect x="-45" y="-46" width="20" height="30" fill="#111827"/><rect x="-190" y="-16" width="380" height="18" rx="4" fill="#1a1f2b"/><rect x="-175" y="2" width="10" height="120" fill="#10141d"/><rect x="165" y="2" width="10" height="120" fill="#10141d"/></g><g transform="translate(506.4 388.9) scale(0.589)"><circle cx="0" cy="-118" r="26" fill="#1b2130"/><path d="M-52 -40 q0 -58 52 -58 q52 0 52 58 v40 h-104z" fill="#1f2937"/></g><g transform="translate(875.0 330) scale(0.62)"><rect x="-120" y="-150" width="170" height="104" rx="8" fill="#0b0f19" stroke="#1f2937" stroke-width="4"/><rect x="-112" y="-142" width="154" height="88" rx="4" fill="#0f766e" opacity="0.85"/><rect x="-100" y="-130" width="50" height="6" rx="3" fill="#e0f2fe" opacity="0.5"/><rect x="-100" y="-114" width="87" height="6" rx="3" fill="#e0f2fe" opacity="0.5"/><rect x="-100" y="-98" width="124" height="6" rx="3" fill="#e0f2fe" opacity="0.5"/><rect x="-100" y="-82" width="81" height="6" rx="3" fill="#e0f2fe" opacity="0.5"/><rect x="-100" y="-66" width="118" height="6" rx="3" fill="#e0f2fe" opacity="0.5"/><rect x="-45" y="-46" width="20" height="30" fill="#111827"/><rect x="-190" y="-16" width="380" height="18" rx="4" fill="#1a1f2b"/><rect x="-175" y="2" width="10" height="120" fill="#10141d"/><rect x="165" y="2" width="10" height="120" fill="#10141d"/></g><g transform="translate(856.4 388.9) scale(0.589)"><circle cx="0" cy="-118" r="26" fill="#1b2130"/><path d="M-52 -40 q0 -58 52 -58 q52 0 52 58 v40 h-104z" fill="#1f2937"/></g><g transform="translate(1225.0 330) scale(0.62)"><rect x="-120" y="-150" width="170" height="104" rx="8" fill="#0b0f19" stroke="#1f2937" stroke-width="4"/><rect x="-112" y="-142" width="154" height="88" rx="4" fill="#1e3a8a" opacity="0.85"/><rect x="-100" y="-130" width="50" height="6" rx="3" fill="#e0f2fe" opacity="0.5"/><rect x="-100" y="-114" width="87" height="6" rx="3" fill="#e0f2fe" opacity="0.5"/><rect x="-100" y="-98" width="124" height="6" rx="3" fill="#e0f2fe" opacity="0.5"/><rect x="-100" y="-82" width="81" height="6" rx="3" fill="#e0f2fe" opacity="0.5"/><rect x="-100" y="-66" width="118" height="6" rx="3" fill="#e0f2fe" opacity="0.5"/><rect x="-45" y="-46" width="20" height="30" fill="#111827"/><rect x="-190" y="-16" width="380" height="18" rx="4" fill="#1a1f2b"/><rect x="-175" y="2" width="10" height="120" fill="#10141d"/><rect x="165" y="2" width="10" height="120" fill="#10141d"/></g><g transform="translate(1206.4 388.9) scale(0.589)"><circle cx="0" cy="-118" r="26" fill="#1b2130"/><path d="M-52 -40 q0 -58 52 -58 q52 0 52 58 v40 h-104z" fill="#334155"/></g><g transform="translate(273.33333333333337 520) scale(0.85)"><rect x="-120" y="-150" width="170" height="104" rx="8" fill="#0b0f19" stroke="#1f2937" stroke-width="4"/><rect x="-112" y="-142" width="154" height="88" rx="4" fill="#155e75" opacity="0.85"/><rect x="-100" y="-130" width="50" height="6" rx="3" fill="#e0f2fe" opacity="0.5"/><rect x="-100" y="-114" width="87" height="6" rx="3" fill="#e0f2fe" opacity="0.5"/><rect x="-100" y="-98" width="124" height="6" rx="3" fill="#e0f2fe" opacity="0.5"/><rect x="-100" y="-82" width="81" height="6" rx="3" fill="#e0f2fe" opacity="0.5"/><rect x="-100" y="-66" width="118" height="6" rx="3" fill="#e0f2fe" opacity="0.5"/><rect x="-45" y="-46" width="20" height="30" fill="#111827"/><rect x="-190" y="-16" width="380" height="18" rx="4" fill="#1a1f2b"/><rect x="-175" y="2" width="10" height="120" fill="#10141d"/><rect x="165" y="2" width="10" height="120" fill="#10141d"/></g><g transform="translate(247.83333333333337 600.75) scale(0.8075)"><circle cx="0" cy="-118" r="26" fill="#1b2130"/><path d="M-52 -40 q0 -58 52 -58 q52 0 52 58 v40 h-104z" fill="#334155"/></g><g transform="translate(740.0 520) scale(0.85)"><rect x="-120" y="-150" width="170" height="104" rx="8" fill="#0b0f19" stroke="#1f2937" stroke-width="4"/><rect x="-112" y="-142" width="154" height="88" rx="4" fill="#3730a3" opacity="0.85"/><rect x="-100" y="-130" width="50" height="6" rx="3" fill="#e0f2fe" opacity="0.5"/><rect x="-100" y="-114" width="87" height="6" rx="3" fill="#e0f2fe" opacity="0.5"/><rect x="-100" y="-98" width="124" height="6" rx="3" fill="#e0f2fe" opacity="0.5"/><rect x="-100" y="-82" width="81" height="6" rx="3" fill="#e0f2fe" opacity="0.5"/><rect x="-100" y="-66" width="118" height="6" rx="3" fill="#e0f2fe" opacity="0.5"/><rect x="-45" y="-46" width="20" height="30" fill="#111827"/><rect x="-190" y="-16" width="380" height="18" rx="4" fill="#1a1f2b"/><rect x="-175" y="2" width="10" height="120" fill="#10141d"/><rect x="165" y="2" width="10" height="120" fill="#10141d"/></g><g transform="translate(714.5 600.75) scale(0.8075)"><circle cx="0" cy="-118" r="26" fill="#1b2130"/><path d="M-52 -40 q0 -58 52 -58 q52 0 52 58 v40 h-104z" fill="#1f2937"/></g><g transform="translate(1206.6666666666667 520) scale(0.85)"><rect x="-120" y="-150" width="170" height="104" rx="8" fill="#0b0f19" stroke="#1f2937" stroke-width="4"/><rect x="-112" y="-142" width="154" height="88" rx="4" fill="#0e7490" opacity="0.85"/><rect x="-100" y="-130" width="50" height="6" rx="3" fill="#e0f2fe" opacity="0.5"/><rect x="-100" y="-114" width="87" height="6" rx="3" fill="#e0f2fe" opacity="0.5"/><rect x="-100" y="-98" width="124" height="6" rx="3" fill="#e0f2fe" opacity="0.5"/><rect x="-100" y="-82" width="81" height="6" rx="3" fill="#e0f2fe" opacity="0.5"/><rect x="-100" y="-66" width="118" height="6" rx="3" fill="#e0f2fe" opacity="0.5"/><rect x="-45" y="-46" width="20" height="30" fill="#111827"/><rect x="-190" y="-16" width="380" height="18" rx="4" fill="#1a1f2b"/><rect x="-175" y="2" width="10" height="120" fill="#10141d"/><rect x="165" y="2" width="10" height="120" fill="#10141d"/></g><g transform="translate(1181.1666666666667 600.75) scale(0.8075)"><circle cx="0" cy="-118" r="26" fill="#1b2130"/><path d="M-52 -40 q0 -58 52 -58 q52 0 52 58 v40 h-104z" fill="#334155"/></g><g transform="translate(350.0 760) scale(1.15)"><rect x="-120" y="-150" width="170" height="104" rx="8" fill="#0b0f19" stroke="#1f2937" stroke-width="4"/><rect x="-112" y="-142" width="154" height="88" rx="4" fill="#1e40af" opacity="0.85"/><rect x="-100" y="-130" width="50" height="6" rx="3" fill="#e0f2fe" opacity="0.5"/><rect x="-100" y="-114" width="87" height="6" rx="3" fill="#e0f2fe" opacity="0.5"/><rect x="-100" y="-98" width="124" height="6" rx="3" fill="#e0f2fe" opacity="0.5"/><rect x="-100" y="-82" width="81" height="6" rx="3" fill="#e0f2fe" opacity="0.5"/><rect x="-100" y="-66" width="118" height="6" rx="3" fill="#e0f2fe" opacity="0.5"/><rect x="-45" y="-46" width="20" height="30" fill="#111827"/><rect x="-190" y="-16" width="380" height="18" rx="4" fill="#1a1f2b"/><rect x="-175" y="2" width="10" height="120" fill="#10141d"/><rect x="165" y="2" width="10" height="120" fill="#10141d"/></g><g transform="translate(315.5 869.25) scale(1.0924999999999998)"><circle cx="0" cy="-118" r="26" fill="#1b2130"/><path d="M-52 -40 q0 -58 52 -58 q52 0 52 58 v40 h-104z" fill="#1f2937"/></g><g transform="translate(1050.0 760) scale(1.15)"><rect x="-120" y="-150" width="170" height="104" rx="8" fill="#0b0f19" stroke="#1f2937" stroke-width="4"/><rect x="-112" y="-142" width="154" height="88" rx="4" fill="#0f766e" opacity="0.85"/><rect x="-100" y="-130" width="50" height="6" rx="3" fill="#e0f2fe" opacity="0.5"/><rect x="-100" y="-114" width="87" height="6" rx="3" fill="#e0f2fe" opacity="0.5"/><rect x="-100" y="-98" width="124" height="6" rx="3" fill="#e0f2fe" opacity="0.5"/><rect x="-100" y="-82" width="81" height="6" rx="3" fill="#e0f2fe" opacity="0.5"/><rect x="-100" y="-66" width="118" height="6" rx="3" fill="#e0f2fe" opacity="0.5"/><rect x="-45" y="-46" width="20" height="30" fill="#111827"/><rect x="-190" y="-16" width="380" height="18" rx="4" fill="#1a1f2b"/><rect x="-175" y="2" width="10" height="120" fill="#10141d"/><rect x="165" y="2" width="10" height="120" fill="#10141d"/></g><g transform="translate(1015.5 869.25) scale(1.0924999999999998)"><circle cx="0" cy="-118" r="26" fill="#1b2130"/><path d="M-52 -40 q0 -58 52 -58 q52 0 52 58 v40 h-104z" fill="#334155"/></g>
</svg>